<svg width="600" height="400" viewBox="0 0 600 400" fill="none" xmlns="http://www.w3.org/2000/svg">
  <!-- Background -->
  <rect width="600" height="400" rx="20" fill="#F5F5F5" fill-opacity="0.5"/>
  
  <!-- Campus Building -->
  <rect x="100" y="150" width="200" height="150" fill="#E0E0E0"/>
  <rect x="120" y="170" width="40" height="60" fill="#0057B7"/>
  <rect x="180" y="170" width="40" height="60" fill="#0057B7"/>
  <rect x="240" y="170" width="40" height="60" fill="#0057B7"/>
  <path d="M100 150L200 100L300 150H100Z" fill="#0057B7"/>
  
  <!-- Shopping Cart -->
  <circle cx="400" cy="250" r="60" fill="#27AE60" fill-opacity="0.2"/>
  <path d="M370 230H430L420 260H380L370 230Z" stroke="#27AE60" stroke-width="4"/>
  <circle cx="385" cy="270" r="8" fill="#27AE60"/>
  <circle cx="415" cy="270" r="8" fill="#27AE60"/>
  <path d="M350 210L370 230" stroke="#27AE60" stroke-width="4"/>
  
  <!-- Products -->
  <rect x="450" y="150" width="40" height="40" rx="5" fill="#9B59B6" fill-opacity="0.7"/>
  <rect x="450" y="200" width="40" height="40" rx="5" fill="#F39C12" fill-opacity="0.7"/>
  <rect x="450" y="250" width="40" height="40" rx="5" fill="#E74C3C" fill-opacity="0.7"/>
  
  <!-- Students -->
  <circle cx="350" cy="180" r="20" fill="#0057B7"/>
  <circle cx="350" cy="150" r="10" fill="#0057B7"/>
  <circle cx="380" cy="190" r="15" fill="#9B59B6"/>
  <circle cx="380" cy="170" r="8" fill="#9B59B6"/>
  
  <!-- Connection Lines -->
  <path d="M300 200L350 180" stroke="#0057B7" stroke-width="2" stroke-dasharray="4 4"/>
  <path d="M380 190L400 230" stroke="#9B59B6" stroke-width="2" stroke-dasharray="4 4"/>
  <path d="M420 250L450 230" stroke="#27AE60" stroke-width="2" stroke-dasharray="4 4"/>
  
  <!-- Decorative Elements -->
  <circle cx="150" cy="100" r="30" fill="#F39C12" fill-opacity="0.2"/>
  <circle cx="450" cy="100" r="40" fill="#E74C3C" fill-opacity="0.2"/>
  <circle cx="250" cy="300" r="25" fill="#9B59B6" fill-opacity="0.2"/>
  <circle cx="500" cy="320" r="35" fill="#0057B7" fill-opacity="0.2"/>
</svg> 