<svg width="40" height="40" viewBox="0 0 40 40" fill="none" xmlns="http://www.w3.org/2000/svg">
  <rect width="40" height="40" rx="8" fill="#0057B7"/>
  <path d="M10 15C10 12.7909 11.7909 11 14 11H26C28.2091 11 30 12.7909 30 15V25C30 27.2091 28.2091 29 26 29H14C11.7909 29 10 27.2091 10 25V15Z" fill="white"/>
  <path d="M14 17H26V23H14V17Z" fill="#0057B7"/>
  <path d="M20 11L23 17H17L20 11Z" fill="#0057B7"/>
  <path d="M20 29L23 23H17L20 29Z" fill="#0057B7"/>
  <path d="M14 20L10 23V17L14 20Z" fill="#0057B7"/>
  <path d="M26 20L30 23V17L26 20Z" fill="#0057B7"/>
</svg> 